<?xml version="1.0" encoding="UTF-8"?>
<svg width="134px" height="36px" viewBox="0 0 134 36" version="1.1" xmlns="http://www.w3.org/2000/svg" xmlns:xlink="http://www.w3.org/1999/xlink">
    <!-- Generator: Sketch 61.2 (89653) - https://sketch.com -->
    <title>Artboard</title>
    <desc>Created with Sketch.</desc>
    <g id="Artboard" stroke="none" stroke-width="1" fill="none" fill-rule="evenodd">
        <g id="VEGANISE" transform="translate(0.000000, 3.000000)" fill-rule="nonzero">
            <path d="M15.5039062,29.0566406 L19.265625,0.59765625 L11.4609375,0.59765625 L10.9511719,5.88867188 C10.5292969,10.1425781 10.125,15.0058594 9.73828125,20.4785156 C9.3515625,15.0644531 8.70703125,8.4375 7.8046875,0.59765625 L7.8046875,0.59765625 L0,0.59765625 L4.27148438,29.0566406 L15.5039062,29.0566406 Z M33.3632812,29.0566406 L33.3632812,23.3613281 L27.9316406,23.3613281 L27.9316406,17.1035156 L32.5546875,17.1035156 L32.5546875,11.6894531 L27.9316406,11.6894531 L27.9316406,6.29296875 L32.8710938,6.29296875 L32.8710938,0.59765625 L20.53125,0.59765625 L20.53125,29.0566406 L33.3632812,29.0566406 Z M42.5039062,29.6542969 C43.546875,29.6542969 44.4521484,29.4345703 45.2197266,28.9951172 C45.9873047,28.5556641 46.6230469,27.8964844 47.1269531,27.0175781 L47.1269531,27.0175781 L47.8125,29.0566406 L52.4707031,29.0566406 L52.4707031,13.78125 L43.8046875,13.78125 L43.8046875,18.1054688 L45.2988281,18.1054688 L45.2988281,21.4804688 C45.2988281,22.8046875 45.2021484,23.6953125 45.0087891,24.1523438 C44.8154297,24.609375 44.4492188,24.8378906 43.9101562,24.8378906 C43.4179688,24.8378906 43.0898438,24.6357422 42.9257812,24.2314453 C42.7617188,23.8271484 42.6796875,22.9863281 42.6796875,21.7089844 L42.6796875,21.7089844 L42.6796875,8.05078125 C42.6796875,6.59765625 42.7617188,5.6953125 42.9257812,5.34375 C43.0898438,4.9921875 43.4003906,4.81640625 43.8574219,4.81640625 C44.3847656,4.81640625 44.71875,5.02148438 44.859375,5.43164062 C45,5.84179688 45.0703125,6.86132812 45.0703125,8.49023438 L45.0703125,8.49023438 L45.0703125,11.0742188 L52.4707031,11.0742188 L52.4707031,9.84375 C52.4707031,7.51171875 52.2539062,5.73339844 51.8203125,4.50878906 C51.3867188,3.28417969 50.4550781,2.2265625 49.0253906,1.3359375 C47.5957031,0.4453125 45.796875,0 43.6289062,0 C41.4257812,0 39.6298828,0.512695312 38.2412109,1.53808594 C36.8525391,2.56347656 36.0117188,3.69140625 35.71875,4.921875 C35.4257812,6.15234375 35.2792969,8.12695312 35.2792969,10.8457031 L35.2792969,10.8457031 L35.2792969,19.3007812 C35.2792969,21.2578125 35.3496094,22.7255859 35.4902344,23.7041016 C35.6308594,24.6826172 35.9824219,25.6171875 36.5449219,26.5078125 C37.1074219,27.3984375 37.9306641,28.1455078 39.0146484,28.7490234 C40.0986328,29.3525391 41.2617188,29.6542969 42.5039062,29.6542969 Z M61.3125,29.0566406 L61.7519531,23.9414062 L64.40625,23.9414062 L64.7753906,29.0566406 L72.3515625,29.0566406 L68.1152344,0.59765625 L57.4101562,0.59765625 L53.6484375,29.0566406 L61.3125,29.0566406 Z M64.1953125,18.8964844 L61.6640625,18.8964844 C61.8515625,16.3769531 62.3203125,12.3984375 63.0703125,6.9609375 C63.4453125,11.6953125 63.8203125,15.6738281 64.1953125,18.8964844 L64.1953125,18.8964844 Z M79.8046875,29.0566406 L79.8046875,16.1191406 L83.6542969,29.0566406 L90.140625,29.0566406 L90.140625,0.59765625 L83.953125,0.59765625 L83.953125,13.4121094 L79.8046875,0.59765625 L73.6171875,0.59765625 L73.6171875,29.0566406 L79.8046875,29.0566406 Z" id="VEGAN" fill="#5BDEA8"></path>
            <path d="M100.511719,29.0566406 L100.511719,0.59765625 L93.1113281,0.59765625 L93.1113281,29.0566406 L100.511719,29.0566406 Z M111.568359,29.6542969 C113.373047,29.6542969 114.955078,29.3291016 116.314453,28.6787109 C117.673828,28.0283203 118.59082,27.2226562 119.06543,26.2617188 C119.540039,25.3007812 119.777344,23.8066406 119.777344,21.7792969 C119.777344,18.9902344 119.349609,16.96875 118.494141,15.7148438 C117.638672,14.4609375 115.564453,12.8554688 112.271484,10.8984375 C111.123047,10.21875 110.425781,9.63867188 110.179688,9.15820312 C109.921875,8.67773438 109.792969,7.96289062 109.792969,7.01367188 C109.792969,6.27539062 109.907227,5.72460938 110.135742,5.36132812 C110.364258,4.99804688 110.701172,4.81640625 111.146484,4.81640625 C111.556641,4.81640625 111.849609,4.95117188 112.025391,5.22070312 C112.201172,5.49023438 112.289062,6.1171875 112.289062,7.1015625 L112.289062,7.1015625 L112.289062,9.2109375 L119.162109,9.2109375 L119.162109,8.0859375 C119.162109,5.82421875 118.942383,4.22167969 118.50293,3.27832031 C118.063477,2.33496094 117.166992,1.55273438 115.813477,0.931640625 C114.459961,0.310546875 112.822266,0 110.900391,0 C109.142578,0 107.642578,0.284179688 106.400391,0.852539062 C105.158203,1.42089844 104.258789,2.20898438 103.702148,3.21679688 C103.145508,4.22460938 102.867188,5.81835938 102.867188,7.99804688 C102.867188,9.50976562 103.063477,10.7519531 103.456055,11.7246094 C103.848633,12.6972656 104.34375,13.4589844 104.941406,14.0097656 C105.539062,14.5605469 106.757812,15.4453125 108.597656,16.6640625 C110.4375,17.8710938 111.591797,18.7324219 112.060547,19.2480469 C112.517578,19.7636719 112.746094,20.859375 112.746094,22.5351562 C112.746094,23.296875 112.625977,23.8710938 112.385742,24.2578125 C112.145508,24.6445312 111.779297,24.8378906 111.287109,24.8378906 C110.794922,24.8378906 110.452148,24.6855469 110.258789,24.3808594 C110.06543,24.0761719 109.96875,23.390625 109.96875,22.3242188 L109.96875,22.3242188 L109.96875,18.8613281 L103.095703,18.8613281 L103.095703,20.7246094 C103.095703,22.8574219 103.3125,24.5039062 103.746094,25.6640625 C104.179688,26.8242188 105.09668,27.7792969 106.49707,28.5292969 C107.897461,29.2792969 109.587891,29.6542969 111.568359,29.6542969 Z M134.929688,29.0566406 L134.929688,23.3613281 L129.498047,23.3613281 L129.498047,17.1035156 L134.121094,17.1035156 L134.121094,11.6894531 L129.498047,11.6894531 L129.498047,6.29296875 L134.4375,6.29296875 L134.4375,0.59765625 L122.097656,0.59765625 L122.097656,29.0566406 L134.929688,29.0566406 Z" id="ISE" fill="#000000"></path>
        </g>
    </g>
</svg>